<?xml version="1.0" encoding="utf-8"?>
<!-- Generator: Adobe Illustrator 19.0.0, SVG Export Plug-In . SVG Version: 6.00 Build 0)  -->
<svg version="1.1" id="Layer_1" xmlns:v="https://vecta.io/nano"
	 xmlns="http://www.w3.org/2000/svg" xmlns:xlink="http://www.w3.org/1999/xlink" x="0px" y="0px" viewBox="-434 367 154 36"
	 style="enable-background:new -434 367 154 36;" xml:space="preserve">
<style type="text/css">
	.st0{display:none;fill:#B4B7C9;}
	.st1{fill:#B5B5B5;}
</style>
<path class="st0" d="M-391.5,380.2c0.4,0,0.5,0.1,0.5,0.5v7.9h4.1c0.3,0,0.5,0.1,0.5,0.5v0.7c0,0.4-0.1,0.5-0.5,0.5h-5.4
	c-0.3,0-0.5-0.1-0.5-0.5v-9.1c0-0.3,0.1-0.5,0.5-0.5C-392.3,380.2-391.5,380.2-391.5,380.2z M-382.9,383.7c0-2.3,1.5-3.7,4-3.7
	s4,1.4,4,3.7v3.1c0,2.3-1.5,3.7-4,3.7s-4-1.4-4-3.7V383.7z M-376.6,383.7c0-1.3-0.8-2-2.3-2s-2.3,0.7-2.3,2v3.1c0,1.3,0.8,2,2.3,2
	s2.3-0.7,2.3-2V383.7z M-363,384.8c0.4,0,0.5,0.1,0.5,0.5v1.9c0,0.5-0.1,0.9-0.3,1.3c-0.2,0.4-0.5,0.8-0.8,1.1c-0.8,0.7-1.9,1-3,0.9
	c-2.6,0-4-1.4-4-3.7v-3.1c0-2.3,1.5-3.7,4-3.7c2,0,3.3,0.8,3.8,2.4v0.2v0.2c0,0.1-0.1,0.1-0.1,0.2c0-0.1-0.1,0-0.1,0l-0.8,0.3
	c-0.3,0.1-0.5,0.1-0.6-0.3c-0.2-0.4-0.5-0.8-0.9-1c-0.4-0.2-0.8-0.3-1.3-0.3c-1.5,0-2.3,0.7-2.3,2v3.2c0,1.3,0.8,2,2.3,2
	s2.4-0.7,2.4-1.6v-0.7h-2.2c-0.4,0-0.5-0.1-0.5-0.5v-0.7c0-0.4,0.1-0.5,0.5-0.5h3.4V384.8z M-358.4,383.7c0-2.3,1.5-3.7,4-3.7
	s4,1.4,4,3.7v3.1c0,2.3-1.5,3.7-4,3.7s-4-1.4-4-3.7V383.7z M-352.1,383.7c0-1.3-0.8-2-2.3-2c-1.4,0-2.3,0.7-2.3,2v3.1
	c0,1.3,0.8,2,2.3,2s2.3-0.7,2.3-2V383.7z M-345.7,380.5c0-0.2,0.1-0.3,0.3-0.3h0.5c0.2,0,0.3,0.1,0.3,0.3v9.5c0,0.2,0,0.3-0.3,0.3
	h-0.5c-0.2,0-0.3-0.1-0.3-0.3C-345.7,390-345.7,380.5-345.7,380.5z M-335.5,380.2c0.8,0,1.6,0.3,2.2,0.9c0.6,0.6,0.9,1.4,0.9,2.2
	c0,0.8-0.3,1.6-0.9,2.2c-0.6,0.6-1.4,0.9-2.2,0.9h-3v3.6c0,0.2-0.1,0.3-0.3,0.3h-0.5c-0.2,0-0.3-0.1-0.3-0.3v-9.5
	c0-0.2,0.1-0.3,0.3-0.3C-339.3,380.2-335.5,380.2-335.5,380.2z M-335.6,385.5c0.3,0,0.6-0.1,0.8-0.2c0.3-0.1,0.5-0.3,0.7-0.5
	c0.2-0.2,0.4-0.4,0.5-0.7c0.1-0.3,0.2-0.5,0.2-0.8c0-0.3-0.1-0.6-0.2-0.8c-0.1-0.3-0.3-0.5-0.5-0.7c-0.2-0.2-0.4-0.4-0.7-0.5
	c-0.3-0.1-0.5-0.2-0.8-0.2h-3v4.4H-335.6z M-324.6,380.1c0.8-0.1,1.6,0.1,2.2,0.5c0.7,0.4,1.2,1,1.5,1.7c0.1,0.2,0,0.3-0.2,0.4
	l-0.4,0.2c-0.2,0.1-0.2,0.1-0.4-0.1c-0.2-0.5-0.6-1-1.1-1.3s-1.1-0.4-1.6-0.4c-1.7,0-2.6,0.7-2.6,1.9c0,0.4,0.1,0.7,0.3,1
	c0.2,0.3,0.6,0.5,0.9,0.5c0.5,0.2,1.1,0.3,1.7,0.3c0.7,0,1.4,0.2,2,0.4c0.5,0.2,0.9,0.5,1.2,0.9c0.3,0.4,0.4,0.9,0.4,1.5
	c0,1.9-1.4,3-3.9,3c-0.8,0.1-1.6-0.1-2.3-0.5c-0.7-0.4-1.2-1.1-1.5-1.9v-0.1V388c0,0,0-0.1,0.1-0.1c0,0,0.1,0,0.1-0.1l0.4-0.2h0.1
	h0.1c0,0,0.1,0,0.1,0.1c0,0,0,0.1,0.1,0.1c0.2,0.6,0.6,1,1.1,1.4c0.5,0.3,1.1,0.5,1.7,0.4c1.9,0,2.8-0.7,2.8-2c0-0.4-0.1-0.7-0.3-1
	c-0.2-0.3-0.5-0.5-0.9-0.6c-0.5-0.2-1.1-0.2-1.6-0.3l-1.1-0.1l-1-0.3c-0.3-0.1-0.6-0.3-0.9-0.5c-0.3-0.2-0.5-0.5-0.6-0.9
	c-0.1-0.3-0.2-0.7-0.2-1C-328.2,381.2-326.9,380.1-324.6,380.1z M-315.3,386.9c0,0.7,0.4,1.4,0.9,1.9s1.2,0.8,1.9,0.8
	s1.4-0.3,1.9-0.8s0.8-1.1,0.9-1.9v-6.3c0-0.2,0.1-0.3,0.3-0.3h0.5c0.2,0,0.3,0.1,0.3,0.3v6.3c0,2.3-1.3,3.6-3.8,3.6
	s-3.8-1.4-3.8-3.6v-6.3c0-0.2,0.1-0.3,0.3-0.3h0.5c0.2,0,0.3,0.1,0.3,0.3v6.3H-315.3z M-294.9,380.3c0.2,0,0.3,0.1,0.3,0.3v9.4
	c0,0.2-0.1,0.3-0.3,0.3h-0.4c-0.2,0-0.3-0.1-0.3-0.3v-5.8c0-0.8,0.1-1.7,0.2-2.5h-0.1c-0.3,0.8-0.7,1.5-1.1,2.2l-2.2,3.8
	c0,0.1-0.1,0.1-0.1,0.2c-0.1,0-0.1,0.1-0.2,0.1h-0.3c-0.1,0-0.1,0-0.2-0.1c-0.1,0-0.1-0.1-0.1-0.2l-2.2-3.8c-0.4-0.7-0.7-1.4-1-2.2
	h-0.1l0.2,2.5v5.8c0,0.2-0.1,0.3-0.3,0.3h-0.4c-0.2,0-0.3-0.1-0.3-0.3v-9.5c0-0.2,0.1-0.3,0.3-0.3h0.4c0.1,0,0.2,0,0.2,0.1
	c0.1,0,0.1,0.1,0.2,0.2l3.5,6.2l3.5-6.2c0.1-0.2,0.2-0.2,0.4-0.2H-294.9L-294.9,380.3z M-409.3,388.8v7.2c0,0.3-0.1,0.5-0.3,0.7
	c-0.2,0.2-0.4,0.3-0.7,0.3c-0.3,0-0.5-0.1-0.7-0.3c-0.2-0.2-0.3-0.4-0.3-0.7v-7.2c0.3,0.2,0.6,0.3,1,0.3
	C-410,389.2-409.6,389-409.3,388.8z M-400.4,386.7c-0.3,0-0.5,0.1-0.7,0.3c-0.2,0.2-0.3,0.4-0.3,0.7v1.3c0,0.3,0.1,0.5,0.3,0.7
	c0.2,0.2,0.4,0.3,0.7,0.3c0.3,0,0.5-0.1,0.7-0.3c0.2-0.2,0.3-0.4,0.3-0.7v-1.2c0-0.1,0-0.3-0.1-0.4s-0.1-0.3-0.2-0.4
	c-0.1-0.1-0.2-0.2-0.4-0.2C-400.1,386.7-400.2,386.7-400.4,386.7z M-413.6,391.5c-0.4,0-0.7-0.1-1-0.3v7.2c0,0.3,0.1,0.5,0.3,0.7
	c0.2,0.2,0.4,0.3,0.7,0.3c0.3,0,0.5-0.1,0.7-0.3c0.2-0.2,0.3-0.4,0.3-0.7v-7.2C-412.9,391.5-413.2,391.6-413.6,391.5z M-403.6,384.5
	c-0.1,0-0.3,0-0.4,0.1c-0.1,0-0.2,0.1-0.3,0.2c-0.1,0.1-0.2,0.2-0.2,0.3c-0.1,0.1-0.1,0.3-0.1,0.4v5.6c0,0.3,0.1,0.5,0.3,0.7
	c0.2,0.2,0.4,0.3,0.7,0.3c0.3,0,0.5-0.1,0.7-0.3c0.2-0.2,0.3-0.4,0.3-0.7v-5.5c0-0.1,0-0.3-0.1-0.4c-0.1-0.1-0.1-0.3-0.2-0.4
	c-0.1-0.1-0.2-0.2-0.4-0.2C-403.4,384.6-403.5,384.5-403.6,384.5L-403.6,384.5z M-407,386.7c-0.4,0-0.7-0.1-1-0.3v7.3
	c0,0.3,0.1,0.5,0.3,0.7c0.2,0.2,0.4,0.3,0.7,0.3c0.3,0,0.5-0.1,0.7-0.3c0.2-0.2,0.3-0.4,0.3-0.7v-7.3
	C-406.2,386.6-406.6,386.7-407,386.7L-407,386.7z M-415.9,392.2v-20.3c0-0.3-0.1-0.5-0.3-0.7c-0.2-0.1-0.4-0.2-0.6-0.2h-0.2
	c-0.3,0-0.5,0.1-0.7,0.3c-0.2,0.2-0.3,0.4-0.3,0.6v20.3c0,0.3,0.1,0.5,0.3,0.7c0.2,0.2,0.4,0.3,0.7,0.3h0.2c0.3,0,0.5-0.1,0.7-0.3
	C-416,392.7-415.9,392.5-415.9,392.2z M-413.5,390.8h-0.2c-0.3,0-0.5-0.1-0.7-0.3c-0.2-0.2-0.3-0.4-0.3-0.7v-15.5
	c0-0.3,0.1-0.5,0.3-0.7c0.2-0.2,0.4-0.3,0.7-0.3h0.2c0.3,0,0.5,0.1,0.7,0.3c0.2,0.2,0.3,0.4,0.3,0.7v15.5c0,0.3-0.1,0.5-0.3,0.7
	C-413,390.7-413.2,390.8-413.5,390.8C-413.5,390.8-413.5,390.8-413.5,390.8z M-410.2,388.4h-0.2c-0.3,0-0.5-0.1-0.7-0.3
	c-0.2-0.2-0.3-0.4-0.3-0.7v-10.6c0-0.1,0-0.2,0.1-0.4c0-0.1,0.1-0.2,0.2-0.3s0.2-0.2,0.3-0.2c0.1,0,0.2-0.1,0.4-0.1h0.2
	c0.3,0,0.5,0.1,0.7,0.3c0.2,0.2,0.3,0.4,0.3,0.7v10.7c0,0.3-0.1,0.5-0.3,0.7C-409.7,388.3-410,388.4-410.2,388.4z M-406.9,385.9
	h-0.2c-0.3,0-0.5-0.1-0.7-0.3c-0.1-0.1-0.2-0.4-0.2-0.6v-5.8c0-0.1,0-0.3,0.1-0.4c0-0.1,0.1-0.2,0.2-0.3c0.1-0.1,0.2-0.2,0.3-0.2
	c0.1-0.1,0.2-0.1,0.4-0.1h0.2c0.3,0,0.5,0.1,0.7,0.3c0.2,0.2,0.3,0.4,0.3,0.7v5.8c0,0.1,0,0.2-0.1,0.4c0,0.1-0.1,0.2-0.2,0.3
	c-0.1,0.1-0.2,0.2-0.3,0.2H-406.9C-406.9,385.9-406.9,385.9-406.9,385.9z M-403.6,383.8h-0.2c-0.3,0-0.5-0.1-0.7-0.3
	c-0.2-0.2-0.3-0.4-0.3-0.7v-1.5c0-0.3,0.1-0.5,0.3-0.7c0.2-0.2,0.4-0.3,0.7-0.3h0.2c0.3,0,0.5,0.1,0.7,0.3c0.2,0.2,0.3,0.4,0.3,0.7
	v1.5c0,0.3-0.1,0.5-0.3,0.7C-403.1,383.7-403.3,383.8-403.6,383.8L-403.6,383.8z"/>
<g>
	<path class="st1" d="M-398,383.2c0.4-0.6,0.7-1.2,0.8-1.8l0.3-1.4c0.3-1.5-0.1-2.6-1-3.5c-0.9-0.9-2.3-1.3-4.1-1.3h-9.8l-1.5,8
		h-3.1l-0.7,3.6h3.1l-1,5.3c-0.2,0.8,0,1.5,0.4,2c0.4,0.5,1.1,0.8,1.9,0.8h7.8c1.9,0,3.5-0.5,4.8-1.4c1.3-0.9,2.1-2.2,2.4-3.8
		l0.3-1.4c0.2-0.9,0-1.7-0.4-2.5c-0.4-0.6-0.9-1.1-1.6-1.4C-398.7,384-398.3,383.6-398,383.2L-398,383.2z M-401.5,388.3l-0.2,1.2
		c-0.1,0.5-0.3,0.9-0.8,1.2c-0.5,0.3-1.1,0.4-1.8,0.4h-6.2l0.8-4.4h6.6c0.6,0,1,0.1,1.3,0.4C-401.5,387.5-401.4,387.8-401.5,388.3
		L-401.5,388.3z M-401.2,380.4l-0.2,0.9c-0.1,0.6-0.3,1-0.7,1.3c-0.4,0.3-0.8,0.5-1.4,0.5h-5.5l0.8-4.2h5.4c0.6,0,1,0.1,1.3,0.4
		C-401.2,379.6-401.1,379.9-401.2,380.4L-401.2,380.4z"/>
	<path class="st1" d="M-382.4,380.9c-0.8-0.5-1.9-0.7-3-0.7h-2.5c-1.2,0-2.3,0.2-3.3,0.7c-1,0.5-1.9,1.2-2.5,2
		c-0.7,0.9-1.1,1.9-1.3,3l-0.6,3.2c-0.2,1.1-0.1,2.1,0.2,3c0.4,0.9,1,1.5,1.8,2c0.8,0.5,1.9,0.7,3,0.7h2.5c1.2,0,2.3-0.2,3.3-0.7
		c1-0.5,1.9-1.1,2.5-2c0.7-0.9,1.1-1.9,1.3-3l0.6-3.2c0.2-1.1,0.1-2.1-0.2-3C-381,382.1-381.6,381.4-382.4,380.9L-382.4,380.9z
		 M-389.9,391.2c-0.6,0-1-0.2-1.3-0.6c-0.3-0.4-0.4-1-0.2-1.7l0.5-2.7c0.1-0.7,0.4-1.3,0.9-1.7c0.4-0.4,0.9-0.6,1.5-0.6h2.4
		c0.6,0,1,0.2,1.3,0.6c0.3,0.4,0.4,1,0.2,1.7l-0.5,2.7c-0.1,0.7-0.4,1.3-0.9,1.7c-0.4,0.4-0.9,0.6-1.6,0.6H-389.9z"/>
	<path class="st1" d="M-366,380.9c-0.8-0.5-1.9-0.7-3-0.7h-2.5c-1.2,0-2.3,0.2-3.3,0.7c-1,0.5-1.9,1.2-2.5,2c-0.7,0.9-1.1,1.9-1.3,3
		l-0.6,3.2c-0.2,1.1-0.1,2.1,0.2,3c0.4,0.9,1,1.5,1.8,2c0.8,0.5,1.9,0.7,3,0.7h2.5c1.2,0,2.3-0.2,3.3-0.7c1-0.5,1.9-1.1,2.5-2
		c0.7-0.9,1.1-1.9,1.3-3l0.6-3.2c0.2-1.1,0.1-2.1-0.2-3C-364.6,382.1-365.2,381.4-366,380.9L-366,380.9z M-375,388.9l0.5-2.7
		c0.1-0.7,0.4-1.3,0.9-1.7c0.4-0.4,0.9-0.6,1.5-0.6h2.4c0.6,0,1,0.2,1.3,0.6c0.3,0.4,0.4,1,0.2,1.7l-0.5,2.7
		c-0.1,0.7-0.4,1.3-0.9,1.7c-0.4,0.4-0.9,0.6-1.6,0.6h-2.4c-0.6,0-1-0.2-1.3-0.6C-375.1,390.1-375.1,389.6-375,388.9z"/>
	<polygon class="st1" points="-347,380.7 -352.1,380.7 -358.1,385.8 -356.1,375.1 -360.3,375.1 -363.9,394.9 -359.7,394.9 
		-359,390.7 -357.5,389.5 -354.3,394.9 -349.5,394.9 -354.3,386.7 	"/>
	<path class="st1" d="M-336.4,386.2l-4.1-11.1h-3.8l-3.6,19.7h4.2l2.1-11.5l2.4,6.5c0.1,0.3,0.2,0.5,0.4,0.7l0,0
		c0.1,0.2,0.2,0.3,0.3,0.4c0.3,0.2,0.6,0.4,1.1,0.4h0.1c0.4,0,0.8-0.1,1.2-0.4c0.2-0.1,0.3-0.2,0.5-0.4c0.2-0.2,0.4-0.5,0.6-0.8
		l4.8-6.5l-2.1,11.5h4.2l3.6-19.7h-3.8L-336.4,386.2L-336.4,386.2z"/>
	<path class="st1" d="M-311.3,381.8c-0.9-1-2.3-1.5-4.1-1.5h-2.2c-1.2,0-2.3,0.2-3.3,0.7c-1,0.5-1.9,1.2-2.5,2
		c-0.7,0.9-1.1,1.9-1.3,3l-0.6,3.5c-0.2,1.1-0.1,2,0.3,2.8c0.4,0.8,1,1.5,1.8,1.9c0.8,0.4,1.9,0.7,3,0.7h2.1c1.2,0,2.3-0.2,3.3-0.6
		c1-0.4,1.8-1,2.5-1.7c0.6-0.6,1-1.4,1.2-2.2h-4.2c-0.1,0.2-0.3,0.4-0.5,0.5c-0.4,0.3-0.9,0.4-1.5,0.4h-2.1c-0.6,0-1-0.2-1.3-0.5
		c-0.3-0.3-0.4-0.7-0.3-1.3l0.1-0.4h10.2l0.6-3.2C-310.1,384.2-310.4,382.8-311.3,381.8L-311.3,381.8z M-314.5,385.9h-6.1
		c0.1-0.6,0.4-1.1,0.8-1.5c0.4-0.4,0.9-0.6,1.5-0.6h2.2c0.6,0,1,0.2,1.3,0.6C-314.5,384.7-314.4,385.2-314.5,385.9L-314.5,385.9z"/>
	<polygon class="st1" points="-292.8,385.4 -298.1,385.4 -297.2,380.7 -301.2,380.7 -302.1,385.4 -307.2,385.4 -307.9,389.4 
		-302.8,389.4 -303.7,394.3 -299.7,394.3 -298.8,389.4 -293.6,389.4 	"/>
</g>
</svg>
